<?xml version="1.0" standalone="no"?>
<!DOCTYPE svg PUBLIC "-//W3C//DTD SVG 20010904//EN"
 "http://www.w3.org/TR/2001/REC-SVG-20010904/DTD/svg10.dtd">
<svg version="1.0" xmlns="http://www.w3.org/2000/svg"
 width="313.000000pt" height="436.000000pt" viewBox="0 0 313.000000 436.000000"
 preserveAspectRatio="xMidYMid meet">

<g transform="translate(0.000000,436.000000) scale(0.100000,-0.100000)"
fill="#000000" stroke="none">
<path d="M1748 3975 c-4 -5 -67 -9 -140 -10 -106 -2 -154 -8 -234 -29 -201
-53 -288 -98 -383 -203 -246 -268 -261 -782 -29 -1014 60 -60 117 -88 194 -96
l54 -6 17 -56 c17 -59 20 -255 5 -336 -7 -36 -11 -40 -37 -41 -17 -1 -35 -2
-41 -3 -6 0 -19 -36 -29 -78 -16 -69 -24 -85 -73 -138 -190 -208 -308 -534
-357 -986 -19 -175 -25 -513 -9 -529 7 -7 284 -9 905 -8 l894 3 3 138 3 137
53 0 c31 0 58 5 64 13 12 15 -17 287 -48 436 -36 180 -107 335 -198 433 -30
31 -112 101 -183 153 -96 71 -130 103 -135 123 -3 15 -9 41 -13 57 -5 22 -15
32 -39 39 -17 6 -34 16 -36 23 -3 7 -13 63 -22 125 -27 187 -5 351 63 456 l27
42 123 0 c110 0 125 2 143 20 11 11 20 23 20 28 0 4 -7 84 -14 177 -8 94 -12
172 -9 175 2 3 32 7 66 10 56 5 61 7 70 33 8 26 5 33 -36 75 -53 54 -76 102
-141 297 -84 249 -210 461 -305 514 -45 25 -177 42 -193 26z m179 -71 c50 -29
87 -74 145 -179 61 -112 100 -204 137 -322 43 -142 83 -225 131 -277 41 -44
41 -45 18 -50 -12 -3 -43 -7 -68 -8 l-45 -3 0 -80 c0 -44 4 -133 8 -197 l8
-118 -229 0 -229 0 -54 47 c-84 74 -299 323 -299 347 0 2 19 15 43 29 59 35
124 107 155 175 24 50 27 70 27 157 0 93 -2 105 -32 166 -20 40 -53 85 -83
113 l-50 47 19 28 c32 45 107 109 148 126 46 20 137 33 178 27 17 -2 49 -15
72 -28z m-385 -41 l-56 -58 -91 -1 c-64 0 -104 -6 -140 -20 -47 -19 -50 -22
-50 -56 0 -31 -6 -41 -47 -72 -48 -37 -100 -103 -117 -149 -9 -24 -12 -25 -45
-15 -19 6 -41 8 -49 5 -42 -16 -48 -210 -8 -300 21 -49 115 -157 136 -157 6 0
22 11 35 25 l23 24 43 -30 c41 -28 42 -30 32 -61 -9 -27 -8 -33 8 -45 41 -30
125 -46 207 -39 77 7 79 6 100 -21 12 -15 42 -50 66 -77 l44 -50 -49 -21
c-117 -51 -366 -94 -444 -76 -93 21 -172 86 -219 179 -94 187 -106 414 -32
628 53 154 153 274 281 339 104 53 287 103 382 104 l46 1 -56 -57z m-82 -117
c0 -11 -17 -14 -73 -14 -39 0 -84 -5 -99 -11 -19 -7 -29 -7 -34 0 -3 6 -4 12
-3 13 31 26 209 36 209 12z m18 -71 c107 -32 156 -112 156 -255 1 -78 -2 -90
-33 -148 -39 -72 -89 -120 -161 -157 -51 -26 -60 -41 -38 -63 21 -21 -75 -14
-137 9 -66 25 -139 93 -175 165 -21 41 -25 63 -25 139 0 103 20 155 84 221 93
95 204 126 329 89z m-472 -233 c5 -4 10 -39 11 -78 0 -79 22 -155 58 -203 43
-59 7 -85 -41 -28 -64 76 -96 194 -75 275 11 40 24 50 47 34z m376 -447 c53
-1 90 -16 75 -31 -11 -11 -135 -6 -171 7 -45 16 -39 44 8 33 17 -4 57 -8 88
-9z m339 -312 c32 -27 59 -55 59 -63 1 -23 -94 -400 -100 -400 -3 0 -13 15
-23 33 -10 17 -34 43 -54 57 -30 21 -48 25 -105 25 -37 0 -68 1 -68 3 0 1 18
76 41 166 l41 163 71 30 c40 17 74 31 76 32 2 0 30 -20 62 -46z m-261 -38 c0
-30 -95 -373 -110 -397 -11 -18 -20 -48 -20 -65 0 -18 -4 -33 -10 -33 -5 0
-10 8 -10 19 0 21 107 459 116 472 6 10 34 12 34 4z m-129 -190 l-39 -160 -1
90 c-1 50 -8 121 -16 159 -8 38 -13 71 -11 73 11 11 101 18 104 8 1 -5 -15
-82 -37 -170z m465 -120 c-59 -239 -74 -285 -88 -285 -10 0 -18 2 -18 5 0 5
110 447 131 528 7 26 15 37 28 37 17 0 11 -28 -53 -285z m143 232 c-15 -29
-35 -82 -43 -117 -19 -80 -20 -256 -2 -365 8 -44 13 -81 12 -82 -2 -2 -130 29
-135 33 -2 2 115 496 135 567 4 11 15 17 34 17 l28 0 -29 -53z m-361 -293 c29
-19 62 -72 62 -100 0 -12 -5 -35 -11 -53 -11 -31 -12 -31 -30 -15 -12 11 -19
31 -19 55 0 49 -30 79 -80 79 -55 0 -80 32 -37 50 27 12 84 4 115 -16z m-146
-105 c3 -49 2 -50 -22 -44 -33 9 -33 9 -32 51 3 82 48 77 54 -7z m103 12 c9
-28 -5 -52 -28 -49 -29 4 -44 32 -28 52 18 22 48 20 56 -3z m458 -275 c5 -15
7 -29 4 -32 -6 -6 -819 156 -830 166 -4 4 -3 27 3 52 l12 45 401 -102 c390
-99 401 -102 410 -129z m-401 -2 c233 -47 428 -89 433 -92 42 -25 276 -206
301 -233 47 -51 100 -138 133 -221 44 -110 71 -253 105 -540 l6 -48 -129 0
c-145 0 -209 -9 -276 -41 -73 -34 -150 -112 -185 -185 l-31 -64 -175 0 -175 0
7 73 c3 39 12 117 18 172 11 97 12 100 38 103 25 3 27 7 32 65 15 169 16 245
6 368 -27 342 -130 551 -306 625 -103 43 -224 37 -328 -16 -66 -34 -64 -28 23
63 31 31 61 57 68 57 6 0 202 -39 435 -86z m-204 -54 c28 -12 56 -27 61 -34 7
-8 -24 -42 -105 -114 l-114 -103 0 -260 c0 -199 -3 -260 -12 -263 -58 -17
-114 -42 -139 -64 -36 -29 -75 -89 -85 -126 -6 -25 -9 -26 -73 -26 -36 0 -72
4 -78 8 -19 12 -28 282 -14 422 34 334 140 526 321 577 63 18 175 10 238 -17z
m175 -179 c42 -80 61 -139 82 -251 19 -103 29 -365 18 -475 l-8 -80 -77 -3
-77 -3 -11 41 c-21 77 -103 143 -217 176 -10 3 -13 62 -13 252 l0 248 113 101
112 101 22 -20 c12 -11 37 -50 56 -87z m-776 -569 c1 -92 6 -195 12 -229 8
-54 7 -69 -9 -105 -10 -24 -30 -81 -45 -128 l-26 -85 6 170 c5 168 22 345 45
478 7 37 13 67 14 67 0 0 2 -75 3 -168z m443 -96 c0 -18 -9 -27 -45 -41 -27
-10 -56 -31 -73 -53 -23 -30 -27 -45 -27 -98 0 -104 56 -159 160 -159 105 0
160 55 160 160 0 79 -20 110 -93 145 -39 19 -51 30 -52 48 0 28 36 30 88 3 76
-39 116 -107 116 -196 0 -191 -212 -293 -359 -173 -83 69 -105 190 -52 281 49
84 177 144 177 83z m80 -81 c79 -41 78 -183 -2 -226 -28 -15 -99 -15 -127 1
-52 27 -78 124 -47 178 31 56 115 79 176 47z m-326 -117 c3 -13 7 -36 10 -53
2 -16 8 -38 11 -47 6 -16 1 -18 -43 -18 -47 0 -50 1 -56 31 -3 17 -6 49 -6 70
0 39 0 39 40 39 33 0 40 -4 44 -22z m606 -10 c0 -18 -3 -50 -6 -70 -7 -38 -7
-38 -56 -38 -44 0 -49 2 -43 18 5 14 25 107 25 118 0 2 18 4 40 4 38 0 40 -1
40 -32z m-706 -240 l7 -78 -71 0 c-49 0 -70 4 -70 13 0 33 44 187 72 255 l33
77 11 -95 c6 -52 14 -130 18 -172z m1556 42 l0 -120 -215 0 c-188 0 -215 2
-215 16 0 41 75 134 137 170 72 43 112 53 206 54 l87 0 0 -120z m-1362 19 c51
-45 98 -62 168 -62 69 0 136 26 173 67 22 23 32 26 93 26 l68 0 -5 -37 c-2
-21 -7 -64 -10 -95 l-6 -58 -314 0 -314 0 -6 58 c-3 31 -8 74 -10 95 l-5 37
66 0 c60 0 70 -3 102 -31z"/>
<path d="M2012 3514 c-91 -24 -136 -54 -114 -76 8 -8 28 -3 70 15 33 15 75 27
93 27 43 0 64 13 56 34 -8 19 -35 19 -105 0z"/>
<path d="M2010 3434 c-71 -31 -92 -78 -48 -108 33 -23 130 -21 151 2 23 25 21
78 -3 102 -24 24 -52 25 -100 4z m73 -48 c12 -29 -28 -44 -82 -29 l-24 6 24
18 c28 22 75 25 82 5z"/>
<path d="M1305 3574 c-153 -56 -193 -258 -74 -371 114 -107 293 -72 360 72 39
84 19 178 -51 247 -69 67 -147 84 -235 52z m159 -48 c51 -21 89 -77 94 -141 6
-69 -11 -117 -53 -154 -78 -69 -192 -60 -259 19 -96 114 -17 290 131 290 29 0
69 -6 87 -14z"/>
<path d="M1329 3465 c-38 -20 -59 -58 -59 -104 0 -55 54 -111 106 -111 70 0
124 51 124 117 -1 83 -97 138 -171 98z m79 -36 c36 -12 53 -51 40 -90 -20 -57
-93 -61 -125 -7 -14 22 -14 31 -4 56 7 16 22 34 34 40 12 6 22 11 23 11 1 1
15 -4 32 -10z"/>
</g>
</svg>
